<svg width="360" height="60" viewBox="0 0 360 60" fill="none" xmlns="http://www.w3.org/2000/svg">
<g clip-path="url(#clip0_36_24)">
<rect width="60" height="60" rx="30" fill="#F7F26D" fill-opacity="0.2"/>
<path d="M19.625 36.5625H38.375V18.75H21.5C20.9725 18.7694 20.5331 18.955 20.1819 19.3069C19.8306 19.6587 19.645 20.0981 19.625 20.625V36.5625ZM21.5 16.875H39.3125C39.5862 16.875 39.8109 16.9628 39.9866 17.1384C40.1622 17.3141 40.25 17.5388 40.25 17.8125V37.5C40.25 37.7737 40.1622 37.9984 39.9866 38.1741C39.8109 38.3497 39.5862 38.4375 39.3125 38.4375H18.6875L17.75 40.1372V20.625C17.7694 19.57 18.1356 18.6862 18.8487 17.9737C19.5619 17.2612 20.4456 16.895 21.5 16.875ZM21.0312 38.4375C20.6406 38.4569 20.3134 38.5984 20.0497 38.8622C19.7859 39.1259 19.6541 39.4531 19.6541 39.8438C19.6541 40.2344 19.7859 40.5616 20.0497 40.8253C20.3134 41.0891 20.6406 41.2306 21.0312 41.25H38.375V38.4375H21.0312ZM21.0312 36.5625H40.25V41.25C40.2306 41.7775 40.045 42.2169 39.6931 42.5681C39.3413 42.9194 38.9019 43.105 38.375 43.125H21.0312C20.0938 43.1056 19.3175 42.7881 18.7025 42.1725C18.0875 41.5569 17.77 40.7806 17.75 39.8438C17.7694 38.9062 18.0869 38.13 18.7025 37.515C19.3181 36.9 20.0944 36.5825 21.0312 36.5625ZM25.25 18.75V26.1037L28.0625 23.8481L30.875 26.1037V18.75H25.25V18.75ZM23.375 16.875H32.75V28.0369C32.7306 28.4275 32.55 28.7059 32.2081 28.8722C31.8663 29.0384 31.5391 29.0044 31.2266 28.77L28.0625 26.25L24.8984 28.77C24.5859 29.0044 24.2588 29.0384 23.9169 28.8722C23.575 28.7059 23.3944 28.4275 23.375 28.0369V16.875Z" fill="#08080A" fill-opacity="0.96"/>
<rect x="60" width="60" height="60" rx="30" fill="#4857EC" fill-opacity="0.2"/>
<path d="M85.5803 36.75H79.75C79.4762 36.75 79.2516 36.6622 79.0759 36.4866C78.9003 36.3109 78.8125 36.0863 78.8125 35.8125V19.875H76.9375C76.6637 19.875 76.4391 19.7872 76.2634 19.6116C76.0878 19.4359 76 19.2113 76 18.9375C76 18.6637 76.0878 18.4391 76.2634 18.2634C76.4391 18.0878 76.6637 18 76.9375 18H103.188C103.461 18 103.686 18.0878 103.862 18.2634C104.037 18.4391 104.125 18.6637 104.125 18.9375C104.125 19.2113 104.037 19.4359 103.862 19.6116C103.686 19.7872 103.461 19.875 103.188 19.875H101.312V35.8125C101.312 36.0863 101.225 36.3109 101.049 36.4866C100.873 36.6622 100.649 36.75 100.375 36.75H94.5447L97.7969 42.375H95.6284L92.3763 36.75H87.7469L84.4947 42.375H82.3263L85.5803 36.75ZM99.4375 19.875H80.6875V34.875H99.4375V19.875ZM85.1116 29.9241C84.9159 30.0997 84.6912 30.1875 84.4375 30.1875C84.1838 30.1875 83.9641 30.0947 83.7784 29.9091C83.5928 29.7234 83.5 29.5037 83.5 29.25C83.5 28.9963 83.5878 28.7716 83.7634 28.5759L88.0994 24.2691L91.7613 27.0234L94.9544 23.0391C95.1888 22.7459 95.4866 22.6238 95.8478 22.6725C96.2091 22.7213 96.4531 22.9166 96.58 23.2584C96.7069 23.6003 96.6531 23.9178 96.4188 24.2109L92.1119 29.6016L88.2738 26.73L85.1116 29.9241Z" fill="#08080A" fill-opacity="0.96"/>
<rect x="120" width="60" height="60" rx="30" fill="#FF3344" fill-opacity="0.2"/>
<path d="M147.833 22.5C146.856 22.5 146.123 22.5391 145.635 22.6172C145.147 22.6953 144.727 22.8322 144.375 23.0278C143.789 23.3403 143.339 23.7897 143.027 24.3759C142.831 24.7278 142.694 25.1478 142.616 25.6359C142.538 26.1241 142.499 26.8566 142.499 27.8334V35.9194C142.499 36.8963 142.538 37.6288 142.616 38.1169C142.694 38.605 142.831 39.025 143.027 39.3769C143.339 39.9631 143.789 40.4125 144.375 40.725C144.727 40.9206 145.147 41.0575 145.635 41.1356C146.123 41.2138 146.856 41.2528 147.833 41.2528H152.168C153.145 41.2528 153.878 41.2138 154.366 41.1356C154.854 41.0575 155.274 40.9206 155.626 40.725C156.212 40.4125 156.662 39.9631 156.974 39.3769C157.17 39.025 157.307 38.605 157.385 38.1169C157.463 37.6288 157.502 36.8963 157.502 35.9194V27.8334C157.502 26.8566 157.463 26.1241 157.385 25.6359C157.307 25.1478 157.17 24.7278 156.974 24.3759C156.662 23.7897 156.212 23.3403 155.626 23.0278C155.274 22.8322 154.854 22.6953 154.366 22.6172C153.878 22.5391 153.145 22.5 152.168 22.5H147.833V22.5ZM147.833 20.625H152.168C153.38 20.625 154.298 20.6884 154.923 20.8153C155.548 20.9422 156.075 21.1325 156.505 21.3863C157.423 21.8744 158.127 22.5775 158.615 23.4956C158.868 23.9256 159.059 24.4531 159.186 25.0781C159.313 25.7031 159.376 26.6213 159.376 27.8325V35.9184C159.376 37.1297 159.313 38.0478 159.186 38.6728C159.059 39.2978 158.868 39.8253 158.615 40.2553C158.127 41.1734 157.423 41.8766 156.505 42.3647C156.075 42.6184 155.548 42.8088 154.923 42.9356C154.298 43.0625 153.38 43.1259 152.168 43.1259H147.833C146.621 43.1259 145.703 43.0625 145.078 42.9356C144.453 42.8088 143.926 42.6184 143.496 42.3647C142.578 41.8766 141.874 41.1734 141.386 40.2553C141.132 39.8253 140.942 39.2978 140.815 38.6728C140.688 38.0478 140.625 37.1297 140.625 35.9184V27.8325C140.625 26.6213 140.688 25.7031 140.815 25.0781C140.942 24.4531 141.132 23.9256 141.386 23.4956C141.874 22.5775 142.578 21.8744 143.496 21.3863C143.926 21.1325 144.453 20.9422 145.078 20.8153C145.703 20.6884 146.621 20.625 147.833 20.625V20.625ZM150 24.375C150.625 24.375 150.938 24.6875 150.938 25.3125V29.0625C150.938 29.6875 150.625 30 150 30C149.375 30 149.063 29.6875 149.063 29.0625V25.3125C149.063 24.6875 149.375 24.375 150 24.375ZM150.938 21.5625C150.938 21.8363 150.85 22.0609 150.674 22.2366C150.498 22.4122 150.274 22.5 150 22.5C149.726 22.5 149.502 22.4122 149.326 22.2366C149.15 22.0609 149.063 21.8363 149.063 21.5625V19.6875C149.063 19.4138 148.975 19.1891 148.799 19.0134C148.623 18.8378 148.399 18.75 148.125 18.75H145.313C145.039 18.75 144.814 18.6622 144.638 18.4866C144.463 18.3109 144.375 18.0863 144.375 17.8125C144.375 17.5388 144.463 17.3141 144.638 17.1384C144.814 16.9628 145.039 16.875 145.313 16.875H148.125C148.926 16.8944 149.59 17.1678 150.117 17.6953C150.645 18.2228 150.918 18.8869 150.938 19.6875V21.5625Z" fill="#08080A" fill-opacity="0.96"/>
<rect x="300" width="60" height="60" rx="30" fill="#33A9FF" fill-opacity="0.2"/>
<path d="M318.75 26.25V39.375H341.25V26.25H318.75ZM317.812 24.375H342.188C342.461 24.375 342.686 24.4628 342.862 24.6384C343.037 24.8141 343.125 25.0388 343.125 25.3125V40.3125C343.125 40.5862 343.037 40.8109 342.862 40.9866C342.686 41.1622 342.461 41.25 342.188 41.25H317.812C317.539 41.25 317.314 41.1622 317.138 40.9866C316.963 40.8109 316.875 40.5862 316.875 40.3125V25.3125C316.875 25.0388 316.963 24.8141 317.138 24.6384C317.314 24.4628 317.539 24.375 317.812 24.375ZM319.688 20.625H340.312V22.5H319.688V20.625ZM322.5 16.875H337.5V18.75H322.5V16.875Z" fill="#08080A" fill-opacity="0.96"/>
<rect x="180" width="60" height="60" rx="30" fill="#48EC9D" fill-opacity="0.2"/>
<path d="M200.127 40.0781L204.082 38.76L204.786 39.0825C206.387 39.9031 208.126 40.3134 210.001 40.3134C213.185 40.2159 215.836 39.1759 217.955 37.1934C220.073 35.2109 221.172 32.8134 221.251 30.0009C221.173 27.1884 220.074 24.7909 217.955 22.8084C215.835 20.8259 213.184 19.7859 210.001 19.6884C206.817 19.7859 204.166 20.8259 202.047 22.8084C199.928 24.7909 198.83 27.1884 198.751 30.0009C198.751 31.0165 198.927 32.0225 199.279 33.0187C199.631 34.015 200.148 34.9525 200.831 35.8312L201.476 36.6806L200.127 40.0781ZM198.779 42.4809C198.408 42.5984 198.09 42.5153 197.827 42.2315C197.563 41.9478 197.499 41.6206 197.636 41.25L199.336 36.9721C198.555 35.9371 197.949 34.8287 197.519 33.6468C197.089 32.465 196.874 31.249 196.874 29.999C196.952 26.7765 198.202 23.969 200.624 21.5765C203.046 19.184 206.171 17.929 209.999 17.8115C213.827 17.929 216.952 19.184 219.374 21.5765C221.796 23.969 223.046 26.7765 223.124 29.999C223.046 33.2215 221.796 36.029 219.374 38.4215C216.952 40.814 213.827 42.069 209.999 42.1865C207.87 42.1865 205.849 41.7178 203.934 40.7803L198.779 42.4809ZM210 31.4943C209.726 31.4943 209.477 31.4309 209.253 31.304C209.028 31.1771 208.848 30.9915 208.711 30.7471C208.574 30.5028 208.506 30.2537 208.506 30C208.506 29.7462 208.574 29.4971 208.711 29.2528C208.848 29.0084 209.028 28.8228 209.253 28.6959C209.477 28.569 209.726 28.5056 210 28.5056C210.43 28.5056 210.787 28.6471 211.07 28.9303C211.353 29.2134 211.494 29.57 211.494 30C211.494 30.43 211.353 30.7865 211.07 31.0696C210.787 31.3528 210.43 31.4943 210 31.4943V31.4943ZM215.625 31.4943C215.351 31.4943 215.102 31.4309 214.878 31.304C214.653 31.1771 214.473 30.9915 214.336 30.7471C214.199 30.5028 214.131 30.2537 214.131 30C214.131 29.7462 214.199 29.4971 214.336 29.2528C214.473 29.0084 214.653 28.8228 214.878 28.6959C215.102 28.569 215.351 28.5056 215.625 28.5056C216.055 28.5056 216.412 28.6471 216.695 28.9303C216.978 29.2134 217.119 29.57 217.119 30C217.119 30.43 216.978 30.7865 216.695 31.0696C216.412 31.3528 216.055 31.4943 215.625 31.4943V31.4943ZM204.375 31.4943C204.101 31.4943 203.852 31.4309 203.628 31.304C203.403 31.1771 203.223 30.9915 203.086 30.7471C202.949 30.5028 202.881 30.2537 202.881 30C202.881 29.7462 202.949 29.4971 203.086 29.2528C203.223 29.0084 203.403 28.8228 203.628 28.6959C203.852 28.569 204.101 28.5056 204.375 28.5056C204.805 28.5056 205.162 28.6471 205.445 28.9303C205.728 29.2134 205.869 29.57 205.869 30C205.869 30.43 205.728 30.7865 205.445 31.0696C205.162 31.3528 204.805 31.4943 204.375 31.4943V31.4943Z" fill="#08080A" fill-opacity="0.96"/>
<rect x="240" width="60" height="60" rx="30" fill="#8DFF33" fill-opacity="0.2"/>
<path d="M270 30C271.602 29.9606 272.93 29.4138 273.984 28.3594C275.039 27.305 275.586 25.9769 275.625 24.375C275.586 22.7731 275.039 21.445 273.984 20.3906C272.93 19.3362 271.602 18.7894 270 18.75C268.398 18.7894 267.07 19.3362 266.016 20.3906C264.961 21.445 264.414 22.7731 264.375 24.375C264.414 25.9769 264.961 27.305 266.016 28.3594C267.07 29.4138 268.398 29.9606 270 30ZM270 31.875C267.871 31.8162 266.104 31.0838 264.697 29.6775C263.291 28.2713 262.559 26.5037 262.5 24.375C262.559 22.2463 263.291 20.4787 264.697 19.0725C266.104 17.6662 267.871 16.9338 270 16.875C272.129 16.9338 273.896 17.6662 275.303 19.0725C276.709 20.4787 277.441 22.2463 277.5 24.375C277.441 26.5037 276.709 28.2713 275.303 29.6775C273.896 31.0838 272.129 31.8162 270 31.875ZM270 30C270.274 30 270.498 30.0878 270.674 30.2634C270.85 30.4391 270.938 30.6638 270.938 30.9375V38.4375C270.938 38.7112 270.85 38.9359 270.674 39.1116C270.498 39.2872 270.274 39.375 270 39.375C269.726 39.375 269.502 39.2872 269.326 39.1116C269.15 38.9359 269.062 38.7112 269.062 38.4375V30.9375C269.062 30.6638 269.15 30.4391 269.326 30.2634C269.502 30.0878 269.726 30 270 30V30ZM266.25 34.0134V35.9175C264.551 36.2106 263.193 36.5962 262.178 37.0744C261.162 37.5525 260.644 38.0066 260.625 38.4366C260.684 39.0422 261.587 39.6525 263.335 40.2675C265.083 40.8825 267.305 41.2097 270 41.2491C272.696 41.2097 274.917 40.8825 276.665 40.2675C278.412 39.6525 279.316 39.0422 279.375 38.4366C279.356 38.0066 278.838 37.5525 277.822 37.0744C276.807 36.5962 275.449 36.2106 273.75 35.9175V34.0134C275.977 34.3453 277.774 34.9069 279.141 35.6981C280.507 36.4894 281.211 37.4025 281.25 38.4375C281.172 39.7656 280.073 40.8691 277.954 41.7478C275.834 42.6266 273.183 43.0856 270 43.125C266.816 43.0856 264.165 42.6266 262.046 41.7478C259.927 40.8691 258.829 39.7656 258.75 38.4375C258.789 37.4025 259.493 36.4894 260.859 35.6981C262.226 34.9069 264.023 34.3453 266.25 34.0134Z" fill="#08080A" fill-opacity="0.96"/>
</g>
<defs>
<clipPath id="clip0_36_24">
<rect width="360" height="60" fill="white"/>
</clipPath>
</defs>
</svg>
